<mxfile host="app.diagrams.net" modified="2023-12-15T02:51:50.044Z" agent="Mozilla/5.0 (Windows NT 10.0; Win64; x64) AppleWebKit/537.36 (KHTML, like Gecko) Chrome/120.0.0.0 Safari/537.36 Edg/120.0.0.0" etag="wRoRTcMFPjhb1oamvPHD" version="22.1.8" type="github">
  <diagram name="第 1 页" id="9VEeLwtgq9xPFcdnr5dx">
    <mxGraphModel dx="854" dy="502" grid="1" gridSize="10" guides="1" tooltips="1" connect="1" arrows="1" fold="1" page="1" pageScale="1" pageWidth="3300" pageHeight="4681" math="0" shadow="0">
      <root>
        <mxCell id="0" />
        <mxCell id="1" parent="0" />
        <mxCell id="NR2siYvtesKDERceZomX-33" style="edgeStyle=orthogonalEdgeStyle;rounded=0;orthogonalLoop=1;jettySize=auto;html=1;exitX=0.25;exitY=1;exitDx=0;exitDy=0;curved=1;" edge="1" parent="1" source="NR2siYvtesKDERceZomX-5" target="NR2siYvtesKDERceZomX-6">
          <mxGeometry relative="1" as="geometry" />
        </mxCell>
        <mxCell id="NR2siYvtesKDERceZomX-34" style="edgeStyle=orthogonalEdgeStyle;rounded=0;orthogonalLoop=1;jettySize=auto;html=1;exitX=1;exitY=0.5;exitDx=0;exitDy=0;curved=1;" edge="1" parent="1" source="NR2siYvtesKDERceZomX-5" target="NR2siYvtesKDERceZomX-18">
          <mxGeometry relative="1" as="geometry" />
        </mxCell>
        <mxCell id="NR2siYvtesKDERceZomX-35" style="edgeStyle=orthogonalEdgeStyle;rounded=0;orthogonalLoop=1;jettySize=auto;html=1;exitX=0.75;exitY=1;exitDx=0;exitDy=0;entryX=0.5;entryY=0;entryDx=0;entryDy=0;curved=1;" edge="1" parent="1" source="NR2siYvtesKDERceZomX-5" target="NR2siYvtesKDERceZomX-12">
          <mxGeometry relative="1" as="geometry" />
        </mxCell>
        <mxCell id="NR2siYvtesKDERceZomX-5" value="总经理" style="rounded=1;whiteSpace=wrap;html=1;fillColor=#CCCCCC;fillStyle=auto;gradientColor=none;" vertex="1" parent="1">
          <mxGeometry x="280" y="20" width="120" height="40" as="geometry" />
        </mxCell>
        <mxCell id="NR2siYvtesKDERceZomX-28" style="edgeStyle=orthogonalEdgeStyle;rounded=0;orthogonalLoop=1;jettySize=auto;html=1;exitX=0;exitY=1;exitDx=0;exitDy=0;curved=1;" edge="1" parent="1" source="NR2siYvtesKDERceZomX-6" target="NR2siYvtesKDERceZomX-11">
          <mxGeometry relative="1" as="geometry" />
        </mxCell>
        <mxCell id="NR2siYvtesKDERceZomX-29" style="edgeStyle=orthogonalEdgeStyle;rounded=0;orthogonalLoop=1;jettySize=auto;html=1;exitX=1;exitY=1;exitDx=0;exitDy=0;curved=1;" edge="1" parent="1" source="NR2siYvtesKDERceZomX-6" target="NR2siYvtesKDERceZomX-14">
          <mxGeometry relative="1" as="geometry" />
        </mxCell>
        <mxCell id="NR2siYvtesKDERceZomX-30" style="edgeStyle=orthogonalEdgeStyle;rounded=0;orthogonalLoop=1;jettySize=auto;html=1;exitX=0.75;exitY=1;exitDx=0;exitDy=0;entryX=0;entryY=0.5;entryDx=0;entryDy=0;curved=1;" edge="1" parent="1" source="NR2siYvtesKDERceZomX-6" target="NR2siYvtesKDERceZomX-15">
          <mxGeometry relative="1" as="geometry" />
        </mxCell>
        <mxCell id="NR2siYvtesKDERceZomX-31" style="edgeStyle=orthogonalEdgeStyle;rounded=0;orthogonalLoop=1;jettySize=auto;html=1;exitX=0.25;exitY=1;exitDx=0;exitDy=0;entryX=0;entryY=0.5;entryDx=0;entryDy=0;curved=1;" edge="1" parent="1" source="NR2siYvtesKDERceZomX-6" target="NR2siYvtesKDERceZomX-13">
          <mxGeometry relative="1" as="geometry" />
        </mxCell>
        <mxCell id="NR2siYvtesKDERceZomX-6" value="职能部门" style="rounded=1;whiteSpace=wrap;html=1;fillColor=#D5E8D4;" vertex="1" parent="1">
          <mxGeometry x="110" y="140" width="120" height="40" as="geometry" />
        </mxCell>
        <mxCell id="NR2siYvtesKDERceZomX-11" value="人&lt;br&gt;力&lt;br&gt;资&lt;br&gt;源&lt;br&gt;部" style="rounded=1;whiteSpace=wrap;html=1;fillColor=#D5E8D4;rotation=90;verticalAlign=middle;align=center;horizontal=0;" vertex="1" parent="1">
          <mxGeometry x="-30" y="270" width="120" height="40" as="geometry" />
        </mxCell>
        <mxCell id="NR2siYvtesKDERceZomX-36" style="edgeStyle=orthogonalEdgeStyle;rounded=0;orthogonalLoop=1;jettySize=auto;html=1;exitX=0;exitY=1;exitDx=0;exitDy=0;entryX=0;entryY=0.5;entryDx=0;entryDy=0;curved=1;" edge="1" parent="1" source="NR2siYvtesKDERceZomX-12" target="NR2siYvtesKDERceZomX-16">
          <mxGeometry relative="1" as="geometry" />
        </mxCell>
        <mxCell id="NR2siYvtesKDERceZomX-37" style="edgeStyle=orthogonalEdgeStyle;rounded=0;orthogonalLoop=1;jettySize=auto;html=1;exitX=0.25;exitY=1;exitDx=0;exitDy=0;entryX=0;entryY=0.5;entryDx=0;entryDy=0;curved=1;" edge="1" parent="1" source="NR2siYvtesKDERceZomX-12" target="NR2siYvtesKDERceZomX-19">
          <mxGeometry relative="1" as="geometry" />
        </mxCell>
        <mxCell id="NR2siYvtesKDERceZomX-38" style="edgeStyle=orthogonalEdgeStyle;rounded=0;orthogonalLoop=1;jettySize=auto;html=1;exitX=0.75;exitY=1;exitDx=0;exitDy=0;entryX=0;entryY=0.5;entryDx=0;entryDy=0;curved=1;" edge="1" parent="1" source="NR2siYvtesKDERceZomX-12" target="NR2siYvtesKDERceZomX-20">
          <mxGeometry relative="1" as="geometry" />
        </mxCell>
        <mxCell id="NR2siYvtesKDERceZomX-39" style="edgeStyle=orthogonalEdgeStyle;rounded=0;orthogonalLoop=1;jettySize=auto;html=1;exitX=1;exitY=1;exitDx=0;exitDy=0;entryX=0;entryY=0.5;entryDx=0;entryDy=0;curved=1;" edge="1" parent="1" source="NR2siYvtesKDERceZomX-12" target="NR2siYvtesKDERceZomX-21">
          <mxGeometry relative="1" as="geometry" />
        </mxCell>
        <mxCell id="NR2siYvtesKDERceZomX-12" value="业务部门" style="rounded=1;whiteSpace=wrap;html=1;fillColor=#3399FF;" vertex="1" parent="1">
          <mxGeometry x="450" y="140" width="120" height="40" as="geometry" />
        </mxCell>
        <mxCell id="NR2siYvtesKDERceZomX-13" value="财&lt;br&gt;务&lt;br&gt;部" style="rounded=1;whiteSpace=wrap;html=1;fillColor=#D5E8D4;rotation=90;horizontal=0;" vertex="1" parent="1">
          <mxGeometry x="50" y="270" width="120" height="40" as="geometry" />
        </mxCell>
        <mxCell id="NR2siYvtesKDERceZomX-14" value="综&lt;br&gt;合&lt;br&gt;办" style="rounded=1;whiteSpace=wrap;html=1;fillColor=#D5E8D4;rotation=90;horizontal=0;" vertex="1" parent="1">
          <mxGeometry x="230" y="270" width="120" height="40" as="geometry" />
        </mxCell>
        <mxCell id="NR2siYvtesKDERceZomX-15" value="市&lt;br&gt;场&lt;br&gt;部" style="rounded=1;whiteSpace=wrap;html=1;fillColor=#D5E8D4;rotation=90;horizontal=0;" vertex="1" parent="1">
          <mxGeometry x="140" y="270" width="120" height="40" as="geometry" />
        </mxCell>
        <mxCell id="NR2siYvtesKDERceZomX-16" value="总&lt;br&gt;师&lt;br&gt;室" style="rounded=1;whiteSpace=wrap;html=1;fillColor=#3399FF;rotation=90;horizontal=0;" vertex="1" parent="1">
          <mxGeometry x="330" y="270" width="120" height="40" as="geometry" />
        </mxCell>
        <mxCell id="NR2siYvtesKDERceZomX-18" value="专家顾问团" style="rounded=1;whiteSpace=wrap;html=1;fillColor=#FFB366;" vertex="1" parent="1">
          <mxGeometry x="570" y="80" width="120" height="40" as="geometry" />
        </mxCell>
        <mxCell id="NR2siYvtesKDERceZomX-19" value="咨&lt;br&gt;询&lt;br&gt;部" style="rounded=1;whiteSpace=wrap;html=1;fillColor=#3399FF;rotation=90;horizontal=0;" vertex="1" parent="1">
          <mxGeometry x="410" y="270" width="120" height="40" as="geometry" />
        </mxCell>
        <mxCell id="NR2siYvtesKDERceZomX-20" value="招&lt;br&gt;标&lt;br&gt;代&lt;br&gt;理&lt;br&gt;部" style="rounded=1;whiteSpace=wrap;html=1;fillColor=#3399FF;rotation=90;horizontal=0;" vertex="1" parent="1">
          <mxGeometry x="490" y="270" width="120" height="40" as="geometry" />
        </mxCell>
        <mxCell id="NR2siYvtesKDERceZomX-21" value="造&lt;br&gt;价&lt;br&gt;部" style="rounded=1;whiteSpace=wrap;html=1;fillColor=#3399FF;rotation=90;horizontal=0;" vertex="1" parent="1">
          <mxGeometry x="570" y="270" width="120" height="40" as="geometry" />
        </mxCell>
      </root>
    </mxGraphModel>
  </diagram>
</mxfile>
